<svg version="1.1" id="Layer_1" xmlns="http://www.w3.org/2000/svg" xmlns:xlink="http://www.w3.org/1999/xlink" x="0px" y="0px"
	 width="100%" viewBox="0 0 128 128" enable-background="new 0 0 128 128" xml:space="preserve">
<path fill="#FEFEFE" opacity="1.000000" stroke="none" 
	d="
M9.000000,129.000000 
	C6.336172,129.000000 3.672344,129.000000 1.006387,129.000000 
	C1.004258,86.381592 1.004258,43.763184 1.004258,1.072389 
	C43.572884,1.072389 86.145920,1.072389 128.859482,1.072389 
	C128.859482,43.666332 128.859482,86.333099 128.859482,129.000000 
	C122.591248,129.000000 116.264671,129.000000 109.666222,128.722855 
	C111.295807,126.995422 113.197258,125.545135 115.324844,123.921005 
	C115.733543,123.230843 115.916122,122.714531 116.459351,122.152504 
	C117.546013,122.082642 118.272018,122.058487 119.171417,122.348145 
	C121.181900,122.266747 123.018997,121.871529 124.856087,121.476311 
	C124.868530,120.836685 124.880974,120.197060 124.893410,119.557434 
	C123.619125,119.256844 122.344841,118.956253 120.670258,118.700348 
	C118.345123,117.884193 115.736427,117.530861 114.640846,116.054596 
	C112.501312,113.171646 110.221710,111.985344 106.654938,112.173058 
	C105.160759,112.251694 103.586823,110.814651 102.266373,109.804871 
	C101.659653,107.208031 99.923843,104.770233 100.173409,102.556236 
	C101.131157,94.059723 96.774429,87.930351 91.884567,81.511047 
	C90.744431,79.390549 89.454628,77.690323 88.811035,75.773163 
	C87.630928,72.257751 86.832031,68.614380 86.018127,64.705513 
	C88.033936,61.056946 89.972260,57.762474 91.761833,54.389088 
	C94.334099,49.540329 93.724380,44.588478 91.183723,40.085480 
	C88.583466,35.476841 85.327309,31.238276 82.283463,26.493998 
	C80.457199,24.525280 78.705734,22.900288 76.677368,21.069622 
	C73.583885,18.584709 70.767288,16.305466 67.823944,13.712660 
	C58.224464,6.576574 50.564873,6.448956 42.735237,13.038691 
	C42.175949,13.235950 41.980026,13.481758 41.585316,13.925482 
	C37.569675,18.687201 33.878384,23.351080 30.012463,28.340958 
	C28.687029,31.931936 27.557930,35.204765 26.381096,38.460335 
	C23.553881,46.281498 21.102139,54.223301 23.078751,62.608440 
	C23.824692,65.772850 25.692217,68.672867 27.298973,71.957581 
	C28.775150,72.967644 30.000820,73.713531 31.052608,74.353600 
	C30.693445,76.378792 30.381948,78.135193 29.973104,80.198502 
	C29.883299,80.933266 29.890839,81.361122 29.443199,81.827324 
	C24.666697,81.974236 20.345375,82.082809 15.610117,82.084351 
	C13.616115,81.977325 12.036051,81.977325 9.172980,81.977325 
	C10.379375,84.531181 11.183881,86.234261 11.639153,88.133713 
	C10.836781,96.882034 10.383644,105.433975 9.783875,114.246239 
	C9.583422,115.294624 9.529604,116.082687 9.344797,117.251572 
	C9.225183,118.703300 9.236556,119.774200 9.156368,121.290817 
	C9.043205,124.157684 9.021603,126.578842 9.000000,129.000000 
z"/>
<path fill="#D8CDBD" opacity="1.000000" stroke="none" 
	d="
M9.375000,129.000000 
	C9.021603,126.578842 9.043205,124.157684 9.348341,121.334694 
	C9.631874,120.932861 10.021976,120.998642 10.008669,121.258362 
	C10.299014,121.872002 10.602665,122.225914 11.290714,122.665375 
	C12.191685,122.679855 12.708260,122.608780 13.547499,122.603546 
	C14.527922,122.670395 15.185681,122.671425 16.298801,122.791122 
	C19.556416,122.828072 22.358669,122.746353 25.564226,122.716293 
	C27.311308,122.683731 28.655087,122.599510 30.453798,122.642441 
	C38.746998,122.769592 46.585266,122.769592 54.841583,122.769592 
	C54.841583,120.285141 54.841583,118.175018 55.224667,116.040680 
	C56.118996,116.005974 56.630245,115.995491 57.239952,116.237610 
	C57.282093,116.842178 57.225777,117.194138 57.202953,117.851387 
	C57.517757,118.439926 57.799072,118.723190 58.188766,119.186646 
	C58.297146,119.366852 58.302231,119.787392 57.988346,120.015923 
	C57.902962,121.570892 58.131458,122.897331 58.340797,124.572281 
	C58.325493,125.617172 58.329353,126.313553 58.047768,127.147537 
	C57.508213,127.856758 57.254105,128.428375 57.000000,129.000000 
	C55.933331,129.000000 54.866661,129.000000 53.386852,128.596359 
	C50.587822,125.141426 47.798553,125.069855 44.662895,127.989685 
	C43.890762,127.990448 43.449596,127.989479 42.914421,127.592987 
	C42.476383,126.861656 42.135830,126.236450 41.787807,126.232269 
	C32.654377,126.122383 23.518940,126.001274 14.388223,126.150314 
	C13.576859,126.163567 12.795365,128.006729 11.999999,129.000000 
	C11.250000,129.000000 10.500000,129.000000 9.375000,129.000000 
z"/>
<path fill="#D8C8B1" opacity="1.000000" stroke="none" 
	d="
M12.454109,129.000000 
	C12.795365,128.006729 13.576859,126.163567 14.388223,126.150314 
	C23.518940,126.001274 32.654377,126.122383 41.787807,126.232269 
	C42.135830,126.236450 42.476383,126.861656 42.444958,127.597214 
	C35.379665,128.331299 28.689831,128.665649 22.000000,129.000000 
	C18.969406,129.000000 15.938813,129.000000 12.454109,129.000000 
z"/>
<path fill="#D4D9D7" opacity="1.000000" stroke="none" 
	d="
M115.098717,124.094849 
	C113.197258,125.545135 111.295807,126.995422 109.197174,128.722855 
	C105.307091,129.000000 101.614182,129.000000 97.663528,128.713226 
	C99.950775,126.787910 102.495766,125.149384 105.467888,123.529213 
	C107.602852,123.433441 109.310692,123.319321 111.135406,123.461014 
	C111.801903,123.790924 112.351509,123.865036 113.265839,123.979431 
	C114.119949,124.044769 114.609329,124.069809 115.098717,124.094849 
z"/>
<path fill="#9F9184" opacity="1.000000" stroke="none" 
	d="
M92.000000,129.000000 
	C86.311958,129.000000 80.623917,129.000000 74.399475,128.999496 
	C73.863083,128.998993 73.706619,128.930817 73.627563,128.258026 
	C73.572800,127.134262 73.597092,126.683296 73.939819,126.370636 
	C75.862907,126.337151 77.467567,126.165367 79.431290,125.964035 
	C81.164490,125.675560 82.538643,125.416626 84.167969,125.439697 
	C87.624878,125.818878 90.826607,125.916054 94.335480,126.083160 
	C94.838303,126.229279 95.033989,126.305466 95.108093,126.671204 
	C93.991013,127.640503 92.995506,128.320251 92.000000,129.000000 
z"/>
<path fill="#877F78" opacity="1.000000" stroke="none" 
	d="
M73.621384,126.232338 
	C73.597092,126.683296 73.572800,127.134262 73.450821,128.292114 
	C73.353134,128.998993 73.000000,129.000000 73.000000,129.000000 
	C67.977905,129.000000 62.955814,129.000000 57.466862,129.000000 
	C57.254105,128.428375 57.508213,127.856758 58.409431,127.120407 
	C62.372581,127.951591 65.824707,129.329315 67.303696,124.185684 
	C69.652992,124.894043 71.637192,125.563187 73.621384,126.232338 
z"/>
<path fill="#C2BFB7" opacity="1.000000" stroke="none" 
	d="
M92.416664,129.000000 
	C92.995506,128.320251 93.991013,127.640503 95.481194,126.615448 
	C98.058014,125.335251 100.140167,124.400360 102.574463,123.438568 
	C103.631325,123.444733 104.336044,123.477798 105.040756,123.510864 
	C102.495766,125.149384 99.950775,126.787910 97.202896,128.713226 
	C95.611107,129.000000 94.222221,129.000000 92.416664,129.000000 
z"/>
<path fill="#C8C0B2" opacity="1.000000" stroke="none" 
	d="
M22.468636,129.000000 
	C28.689831,128.665649 35.379665,128.331299 42.538963,127.992737 
	C43.449596,127.989479 43.890762,127.990448 44.883308,128.100555 
	C45.712742,128.409042 45.901180,128.672470 46.000000,129.000000 
	C38.312424,129.000000 30.624847,129.000000 22.468636,129.000000 
z"/>
<path fill="#D8C8B1" opacity="1.000000" stroke="none" 
	d="
M46.437500,129.000000 
	C45.901180,128.672470 45.712742,128.409042 45.214272,128.098846 
	C47.798553,125.069855 50.587822,125.141426 52.986855,128.596359 
	C50.958332,129.000000 48.916668,129.000000 46.437500,129.000000 
z"/>
<path fill="#E8E7E3" opacity="1.000000" stroke="none" 
	d="
M73.250000,129.000000 
	C73.000000,129.000000 73.353134,128.998993 73.529877,128.964905 
	C73.706619,128.930817 73.863083,128.998993 73.931541,128.999496 
	C74.000000,129.000000 73.500000,129.000000 73.250000,129.000000 
z"/>
<path fill="#3A3939" opacity="1.000000" stroke="none" 
	d="
M82.358261,26.837723 
	C85.327309,31.238276 88.583466,35.476841 91.183723,40.085480 
	C93.724380,44.588478 94.334099,49.540329 91.761833,54.389088 
	C89.972260,57.762474 88.033936,61.056946 85.745667,64.825439 
	C84.897995,66.122124 84.466728,66.980049 83.844193,68.137344 
	C81.193016,69.895370 78.865555,73.152328 75.997574,68.753036 
	C76.002747,68.505074 76.001640,68.009041 76.378983,68.000687 
	C79.686508,67.563736 82.209106,66.702263 82.298042,62.812592 
	C82.374847,61.749226 82.211227,60.874035 82.043251,59.671074 
	C82.041153,58.906246 82.043419,58.469193 82.406395,57.977291 
	C83.324425,56.312538 84.499992,54.623341 84.305893,53.109802 
	C83.940872,50.263584 83.016426,47.421890 81.899811,44.756252 
	C80.495522,41.403919 78.665054,38.230106 77.016617,34.566856 
	C77.357117,31.423679 77.699493,28.692907 78.409897,26.015320 
	C79.971375,26.324911 81.164818,26.581316 82.358261,26.837723 
z"/>
<path fill="#5B3827" opacity="1.000000" stroke="none" 
	d="
M118.998032,122.034332 
	C118.272018,122.058487 117.546013,122.082642 116.087524,121.957825 
	C114.524071,121.833687 113.693092,121.858521 112.559738,121.872086 
	C111.856270,121.907173 111.455177,121.953529 110.892975,121.681778 
	C107.323326,120.253296 103.914787,119.142929 99.163292,117.595085 
	C100.189102,120.483932 100.614006,121.680542 100.748550,123.031982 
	C99.625580,123.374451 98.792976,123.562073 97.838104,123.490189 
	C97.145950,121.171745 96.576042,119.112823 95.966873,116.647438 
	C94.198433,113.282974 96.494980,108.620171 92.132935,106.564972 
	C92.919106,104.851509 93.524643,103.426674 94.409698,101.976967 
	C95.124748,101.638176 95.560280,101.324265 96.318665,101.184509 
	C97.101135,102.675064 97.329239,104.144379 98.074234,105.272278 
	C99.211655,106.994301 100.706223,108.480423 102.049149,110.066704 
	C103.586823,110.814651 105.160759,112.251694 106.654938,112.173058 
	C110.221710,111.985344 112.501312,113.171646 114.640846,116.054596 
	C115.736427,117.530861 118.345123,117.884193 120.629776,119.042603 
	C120.325737,120.238213 119.661880,121.136276 118.998032,122.034332 
z"/>
<path fill="#363434" opacity="1.000000" stroke="none" 
	d="
M41.909660,13.827645 
	C41.980026,13.481758 42.175949,13.235950 43.150837,13.067558 
	C47.328533,12.351276 50.898552,10.927483 54.365810,11.144619 
	C58.936337,11.430849 63.426170,13.005497 67.950699,14.026224 
	C70.767288,16.305466 73.583885,18.584709 76.667236,21.404381 
	C76.976295,22.613186 77.018608,23.281557 76.691902,24.000002 
	C73.803238,24.686495 71.395882,27.421711 68.683632,24.458836 
	C67.779915,25.312222 66.876190,26.165607 65.635406,26.956799 
	C64.978516,26.559740 64.363342,26.207586 64.381790,25.892529 
	C64.937592,16.399389 59.459106,12.634296 50.816811,16.624931 
	C49.192600,17.374924 47.598099,18.189260 45.987488,18.626862 
	C45.722496,14.452305 43.274719,17.474718 41.945221,16.595295 
	C41.933254,15.408858 41.921459,14.618252 41.909660,13.827645 
z"/>
<path fill="#413635" opacity="1.000000" stroke="none" 
	d="
M30.070450,79.891602 
	C30.381948,78.135193 30.693445,76.378792 31.052608,74.353600 
	C30.000820,73.713531 28.775150,72.967644 27.294998,71.524414 
	C27.254810,68.036797 27.577559,65.249344 27.650702,62.455364 
	C27.714640,60.012871 28.152946,57.295490 27.283415,55.166058 
	C24.557209,48.489754 26.103170,42.939754 30.410374,37.806557 
	C31.329994,39.325993 32.168537,40.711475 33.021751,42.340782 
	C33.036415,42.584614 33.046982,43.075676 33.032921,43.488594 
	C33.750130,47.897221 34.481396,51.892929 34.847542,55.950584 
	C33.059486,57.965179 31.183863,59.735031 30.306423,61.907955 
	C28.390112,66.653572 30.315504,69.632408 35.004490,70.386887 
	C34.667759,73.810211 34.350487,76.822845 33.648956,79.949112 
	C32.199947,80.005692 31.135199,79.948647 30.070450,79.891602 
z"/>
<path fill="#584D4A" opacity="1.000000" stroke="none" 
	d="
M33.007084,42.096954 
	C32.168537,40.711475 31.329994,39.325993 30.410374,37.806557 
	C26.103170,42.939754 24.557209,48.489754 27.283415,55.166058 
	C28.152946,57.295490 27.714640,60.012871 27.650702,62.455364 
	C27.577559,65.249344 27.254810,68.036797 27.044491,71.260246 
	C25.692217,68.672867 23.824692,65.772850 23.078751,62.608440 
	C21.102139,54.223301 23.553881,46.281498 26.381096,38.460335 
	C27.557930,35.204765 28.687029,31.931936 30.238897,28.351421 
	C30.639959,28.035885 31.092945,28.054064 31.057518,28.454666 
	C31.987337,31.261934 32.952583,33.668602 33.925766,36.463478 
	C33.931377,37.884281 33.929062,38.916874 33.687981,40.142006 
	C33.301842,40.922016 33.154465,41.509483 33.007084,42.096954 
z"/>
<path fill="#8D8688" opacity="1.000000" stroke="none" 
	d="
M11.988387,87.937347 
	C11.183881,86.234261 10.379375,84.531181 9.172980,81.977325 
	C12.036051,81.977325 13.616115,81.977325 15.610522,82.425247 
	C16.319796,83.901634 16.614723,84.930115 16.729662,86.247910 
	C17.167658,89.335548 17.825226,92.125809 18.395586,94.933792 
	C19.677359,101.244171 19.321535,107.361038 15.960655,112.873253 
	C15.535552,112.428047 15.247157,112.217728 14.981790,111.601036 
	C15.027143,108.496582 15.397567,105.745628 14.997530,103.111694 
	C14.224018,98.018715 13.016191,92.991707 11.988387,87.937347 
z"/>
<path fill="#353131" opacity="1.000000" stroke="none" 
	d="
M102.266373,109.804871 
	C100.706223,108.480423 99.211655,106.994301 98.074234,105.272278 
	C97.329239,104.144379 97.101135,102.675064 96.179718,100.942986 
	C95.407646,100.330544 95.097374,100.133781 94.726753,99.721436 
	C94.494469,99.242317 94.257339,99.066719 93.980553,98.983521 
	C94.006088,98.987991 94.003395,99.040016 93.999634,98.623680 
	C93.339355,92.749390 92.682846,87.291443 92.026337,81.833488 
	C96.774429,87.930351 101.131157,94.059723 100.173409,102.556236 
	C99.923843,104.770233 101.659653,107.208031 102.266373,109.804871 
z"/>
<path fill="#D8CDBD" opacity="1.000000" stroke="none" 
	d="
M29.973103,80.198502 
	C31.135199,79.948647 32.199947,80.005692 34.110359,80.020462 
	C40.969131,79.962265 46.982231,79.946342 53.338051,80.038872 
	C54.843102,80.419678 56.005440,80.692039 57.216934,81.396912 
	C57.307053,85.315605 57.348022,88.801804 57.236084,92.550468 
	C57.295345,94.175087 57.507515,95.537231 57.751709,97.288857 
	C57.854187,98.452225 57.924641,99.226120 57.882027,100.436882 
	C57.581375,104.285645 57.393791,107.697533 56.873009,110.833969 
	C56.363354,102.283638 56.131195,94.009377 56.040340,85.733559 
	C56.008087,82.795807 55.385078,81.034943 51.599251,82.677795 
	C48.415821,82.804047 45.636841,82.815071 42.443676,82.820107 
	C38.298218,82.651794 34.566940,82.489464 30.581718,82.226776 
	C30.184643,82.013939 30.041512,81.901466 29.898380,81.788986 
	C29.890839,81.361122 29.883299,80.933266 29.973103,80.198502 
z"/>
<path fill="#6D6361" opacity="1.000000" stroke="none" 
	d="
M11.639153,88.133713 
	C13.016191,92.991707 14.224018,98.018715 14.997530,103.111694 
	C15.397567,105.745628 15.027143,108.496582 14.673506,111.755714 
	C12.871633,112.873154 11.401070,113.429535 9.930508,113.985924 
	C10.383644,105.433975 10.836781,96.882034 11.639153,88.133713 
z"/>
<path fill="#786D6B" opacity="1.000000" stroke="none" 
	d="
M9.783875,114.246239 
	C11.401070,113.429535 12.871633,112.873154 14.650478,112.162086 
	C15.247157,112.217728 15.535552,112.428047 15.868821,113.239960 
	C15.594716,114.981415 15.275736,116.121284 14.820594,117.747719 
	C17.647066,117.747719 19.765793,117.747719 22.234692,117.838959 
	C23.063248,117.906715 23.541636,117.883224 24.436802,117.905579 
	C26.251686,118.033485 27.649792,118.115547 29.074442,118.520935 
	C29.400280,120.067940 29.699572,121.291618 29.998863,122.515289 
	C28.655087,122.599510 27.311308,122.683731 25.412939,122.370972 
	C21.853378,122.206802 18.848410,122.439621 15.843440,122.672440 
	C15.185681,122.671425 14.527922,122.670395 13.465534,122.291656 
	C11.865866,120.232872 10.670826,118.551819 9.475786,116.870758 
	C9.529604,116.082687 9.583422,115.294624 9.783875,114.246239 
z"/>
<path fill="#635C59" opacity="1.000000" stroke="none" 
	d="
M91.884567,81.511047 
	C92.682846,87.291443 93.339355,92.749390 93.709839,98.400238 
	C92.951675,97.206848 92.449821,95.829880 92.012489,94.432716 
	C89.987495,87.963387 87.980431,81.488449 85.965172,74.681511 
	C85.320755,72.177650 84.678108,70.007805 84.035461,67.837967 
	C84.466728,66.980049 84.897995,66.122124 85.601730,65.144279 
	C86.832031,68.614380 87.630928,72.257751 88.811035,75.773163 
	C89.454628,77.690323 90.744431,79.390549 91.884567,81.511047 
z"/>
<path fill="#817873" opacity="1.000000" stroke="none" 
	d="
M29.443199,81.827324 
	C30.041512,81.901466 30.184643,82.013939 30.641117,82.572189 
	C30.065336,84.671547 29.176208,86.325127 28.161522,87.586807 
	C24.327192,86.782806 20.618423,86.370697 16.909653,85.958588 
	C16.614723,84.930115 16.319796,83.901634 16.024460,82.532272 
	C20.345375,82.082809 24.666697,81.974236 29.443199,81.827324 
z"/>
<path fill="#5E5654" opacity="1.000000" stroke="none" 
	d="
M67.823944,13.712660 
	C63.426170,13.005497 58.936337,11.430849 54.365810,11.144619 
	C50.898552,10.927483 47.328533,12.351276 43.388641,13.016026 
	C50.564873,6.448956 58.224464,6.576574 67.823944,13.712660 
z"/>
<path fill="#5E5654" opacity="1.000000" stroke="none" 
	d="
M31.092945,28.054066 
	C31.092945,28.054064 30.639959,28.035885 30.413525,28.025423 
	C33.878384,23.351080 37.569675,18.687201 41.585312,13.925482 
	C41.921459,14.618252 41.933254,15.408858 41.790611,16.898321 
	C40.377972,20.331985 39.119770,23.066793 37.590858,25.971350 
	C35.244411,26.778751 33.168678,27.416409 31.092945,28.054066 
z"/>
<path fill="#C2BFB7" opacity="1.000000" stroke="none" 
	d="
M119.171417,122.348152 
	C119.661880,121.136276 120.325737,120.238213 121.030075,118.997910 
	C122.344841,118.956253 123.619125,119.256844 124.893410,119.557434 
	C124.880974,120.197060 124.868530,120.836685 124.856087,121.476311 
	C123.018997,121.871529 121.181900,122.266747 119.171417,122.348152 
z"/>
<path fill="#4F4D4D" opacity="1.000000" stroke="none" 
	d="
M77.060913,23.949928 
	C77.018608,23.281557 76.976295,22.613186 76.944130,21.610054 
	C78.705734,22.900288 80.457199,24.525280 82.283463,26.493996 
	C81.164818,26.581316 79.971375,26.324911 78.378983,25.723015 
	C77.673668,24.901661 77.367294,24.425795 77.060913,23.949928 
z"/>
<path fill="#A1958B" opacity="1.000000" stroke="none" 
	d="
M9.344797,117.251572 
	C10.670826,118.551819 11.865866,120.232872 13.142870,122.225822 
	C12.708260,122.608780 12.191685,122.679855 11.280822,122.427414 
	C10.598345,121.735474 10.310158,121.367058 10.021973,120.998642 
	C10.021976,120.998642 9.631874,120.932861 9.439901,120.888985 
	C9.236556,119.774200 9.225183,118.703300 9.344797,117.251572 
z"/>
<path fill="#C2BFB7" opacity="1.000000" stroke="none" 
	d="
M112.862106,121.883347 
	C113.693092,121.858521 114.524071,121.833687 115.726883,122.003540 
	C115.916122,122.714531 115.733543,123.230843 115.324844,123.921005 
	C114.609329,124.069809 114.119949,124.044769 113.269226,123.637123 
	C112.892632,122.797462 112.877365,122.340401 112.862106,121.883347 
z"/>
<path fill="#141411" opacity="1.000000" stroke="none" 
	d="
M57.206211,111.109421 
	C57.393791,107.697533 57.581375,104.285645 58.316650,100.437088 
	C63.567154,100.333725 68.275383,100.607735 72.969398,101.037155 
	C74.343498,101.162865 75.677177,101.730515 76.986511,102.481476 
	C77.008888,106.599983 77.074127,110.332611 76.877991,114.205963 
	C76.423904,114.887459 76.231194,115.428238 75.654182,116.014008 
	C74.527885,116.297653 73.693001,116.391472 73.058777,116.798187 
	C68.516022,119.711365 63.639400,120.854645 58.302231,119.787392 
	C58.302231,119.787392 58.297146,119.366852 58.205570,118.868713 
	C57.799149,118.095749 57.484306,117.820930 57.169464,117.546104 
	C57.225777,117.194138 57.282093,116.842178 57.350800,115.841698 
	C57.310863,113.831932 57.258537,112.470673 57.206211,111.109421 
z"/>
<path fill="#E8E7E3" opacity="1.000000" stroke="none" 
	d="
M57.988346,120.015923 
	C63.639400,120.854645 68.516022,119.711365 73.058777,116.798187 
	C73.693001,116.391472 74.527885,116.297653 76.046738,116.154419 
	C77.488426,117.199654 78.568710,118.083206 78.732971,119.112885 
	C79.092567,121.367126 78.987511,123.695488 79.072227,125.993584 
	C77.467567,126.165367 75.862907,126.337151 73.939819,126.370636 
	C71.637192,125.563187 69.652992,124.894043 67.008545,123.993721 
	C63.594498,122.339821 60.891735,121.801071 58.359959,124.223770 
	C58.131458,122.897331 57.902962,121.570892 57.988346,120.015923 
z"/>
<path fill="#756B68" opacity="1.000000" stroke="none" 
	d="
M30.453796,122.642441 
	C29.699572,121.291618 29.400280,120.067940 29.071182,118.422119 
	C29.041378,117.999969 28.970114,117.818100 29.391853,117.856583 
	C31.217451,117.803612 32.621311,117.712158 34.397003,117.699966 
	C35.529270,117.784035 36.289707,117.788826 37.003860,117.884476 
	C36.957581,117.975327 36.923801,118.176430 36.958405,118.524139 
	C37.495876,119.530922 37.998745,120.189987 38.501610,120.849045 
	C39.026466,120.032646 39.551319,119.216248 40.482586,118.330116 
	C44.932716,117.847145 48.976437,117.433922 53.018158,116.998672 
	C53.016159,116.976639 52.976360,116.956825 53.223122,116.874214 
	C53.927116,116.549370 54.384350,116.307137 54.841583,116.064903 
	C54.841583,118.175018 54.841583,120.285141 54.841583,122.769592 
	C46.585266,122.769592 38.746998,122.769592 30.453796,122.642441 
z"/>
<path fill="#CBC2B3" opacity="1.000000" stroke="none" 
	d="
M55.224667,116.040680 
	C54.384350,116.307137 53.927116,116.549370 53.225193,116.409409 
	C52.988708,106.359741 52.996918,96.692268 53.018990,86.643341 
	C52.689804,85.028786 52.346752,83.795670 52.003696,82.562561 
	C55.385078,81.034943 56.008087,82.795807 56.040340,85.733559 
	C56.131195,94.009377 56.363354,102.283638 56.873009,110.833969 
	C57.258537,112.470673 57.310863,113.831932 57.252342,115.589096 
	C56.630245,115.995491 56.118996,116.005974 55.224667,116.040680 
z"/>
<path fill="#5C5551" opacity="1.000000" stroke="none" 
	d="
M58.340797,124.572281 
	C60.891735,121.801071 63.594498,122.339821 66.643448,123.954514 
	C65.824707,129.329315 62.372581,127.951591 58.694878,126.982811 
	C58.329353,126.313553 58.325493,125.617172 58.340797,124.572281 
z"/>
<path fill="#A1958B" opacity="1.000000" stroke="none" 
	d="
M16.298801,122.791122 
	C18.848410,122.439621 21.853378,122.206802 25.009636,122.319305 
	C22.358669,122.746353 19.556416,122.828072 16.298801,122.791122 
z"/>
<path fill="#8D8688" opacity="1.000000" stroke="none" 
	d="
M10.008667,121.258362 
	C10.310158,121.367058 10.598345,121.735474 10.896425,122.341858 
	C10.602665,122.225914 10.299014,121.872002 10.008667,121.258362 
z"/>
<path fill="#CBC2B3" opacity="1.000000" stroke="none" 
	d="
M57.202953,117.851387 
	C57.484306,117.820930 57.799149,118.095749 58.097191,118.688507 
	C57.799072,118.723190 57.517757,118.439926 57.202953,117.851387 
z"/>
<path fill="#2B1F1A" opacity="1.000000" stroke="none" 
	d="
M101.038910,122.877144 
	C100.614006,121.680542 100.189102,120.483932 99.163292,117.595085 
	C103.914787,119.142929 107.323326,120.253296 110.828140,121.981644 
	C110.955780,122.801483 110.987152,123.003342 111.018524,123.205200 
	C109.310692,123.319321 107.602852,123.433441 105.467888,123.529213 
	C104.336044,123.477798 103.631325,123.444733 102.298767,123.250633 
	C101.460243,123.018784 101.249580,122.947968 101.038910,122.877144 
z"/>
<path fill="#7F766F" opacity="1.000000" stroke="none" 
	d="
M111.135406,123.461014 
	C110.987152,123.003342 110.955780,122.801483 110.989243,122.299759 
	C111.455177,121.953529 111.856270,121.907173 112.559738,121.872078 
	C112.877365,122.340401 112.892632,122.797462 112.904503,123.596832 
	C112.351509,123.865036 111.801903,123.790924 111.135406,123.461014 
z"/>
<path fill="#562F18" opacity="1.000000" stroke="none" 
	d="
M96.006134,117.053894 
	C96.576042,119.112823 97.145950,121.171745 97.564690,123.694603 
	C96.285133,124.776764 95.156738,125.394997 94.028343,126.013229 
	C90.826607,125.916054 87.624878,125.818878 84.184265,125.041138 
	C81.854202,121.472961 83.667511,116.523560 79.056122,114.650864 
	C82.321121,112.831902 83.124870,110.384590 82.256104,107.118980 
	C82.675407,107.054741 82.843277,107.030052 83.405624,107.015434 
	C84.584198,107.098305 85.368294,107.171089 86.127090,107.598381 
	C87.345505,108.928871 88.589226,109.904861 90.084625,111.078346 
	C89.742622,117.973770 90.140282,118.413895 96.006134,117.053894 
z"/>
<path fill="#61402F" opacity="1.000000" stroke="none" 
	d="
M79.000427,114.996201 
	C83.667511,116.523560 81.854202,121.472961 83.929085,124.759125 
	C82.538643,125.416626 81.164490,125.675560 79.431290,125.964035 
	C78.987511,123.695488 79.092567,121.367126 78.732971,119.112885 
	C78.568710,118.083206 77.488426,117.199654 76.431046,116.109421 
	C76.231194,115.428238 76.423904,114.887459 77.113564,114.311707 
	C78.073814,114.516556 78.537125,114.756378 79.000427,114.996201 
z"/>
<path fill="#7F766F" opacity="1.000000" stroke="none" 
	d="
M94.335480,126.083160 
	C95.156738,125.394997 96.285133,124.776764 97.686951,123.954117 
	C98.792976,123.562073 99.625580,123.374451 100.748550,123.031982 
	C101.249580,122.947968 101.460243,123.018784 101.946617,123.277534 
	C100.140167,124.400360 98.058014,125.335251 95.602768,126.325897 
	C95.033989,126.305466 94.838303,126.229279 94.335480,126.083160 
z"/>
<path fill="#1C1B1B" opacity="1.000000" stroke="none" 
	d="
M83.844200,68.137344 
	C84.678108,70.007805 85.320755,72.177650 85.698929,74.924973 
	C85.116776,76.860397 84.799095,78.218346 84.772316,78.332825 
	C81.948425,79.446815 79.973663,80.225830 77.677971,81.175301 
	C75.876953,81.901703 74.159439,82.150764 72.964462,83.075249 
	C70.175728,85.232712 67.638161,87.714828 64.946503,90.404076 
	C62.947315,91.829659 61.000477,92.916611 58.939240,93.679932 
	C58.346222,93.000198 57.867607,92.644096 57.388992,92.287994 
	C57.348022,88.801804 57.307053,85.315605 57.571804,81.364655 
	C61.337418,78.739273 64.797310,76.578659 68.094604,74.519585 
	C65.908058,69.101906 69.052460,63.557697 73.019615,64.298309 
	C73.357246,65.063583 73.674652,65.531700 74.021446,66.320358 
	C74.698021,67.427605 75.345215,68.214302 75.992401,69.000999 
	C78.865555,73.152328 81.193016,69.895370 83.844200,68.137344 
z"/>
<path fill="#2A2525" opacity="1.000000" stroke="none" 
	d="
M76.691902,24.000000 
	C77.367294,24.425795 77.673668,24.901661 78.010956,25.669832 
	C77.699493,28.692907 77.357117,31.423679 77.010170,35.006790 
	C76.982864,37.616261 76.960136,39.373383 76.556435,41.087288 
	C75.158440,41.582119 73.965927,41.934513 73.160255,42.696129 
	C71.377182,44.381714 69.788544,46.272976 67.752785,48.056717 
	C66.235008,48.377689 65.085045,48.722301 63.711403,48.962807 
	C63.208164,48.658558 63.023621,48.392509 63.145653,47.773483 
	C64.235107,45.320671 65.112991,43.154930 66.001236,40.658298 
	C66.025131,39.885975 66.038673,39.444542 66.368256,39.009789 
	C67.105751,39.018131 67.527206,39.019794 68.278229,38.975201 
	C69.072594,37.618122 69.537399,36.307301 70.034500,34.650078 
	C70.943199,32.248566 70.962524,30.716188 68.007050,30.653442 
	C67.307617,29.225115 66.640045,28.122055 65.972473,27.018993 
	C66.876190,26.165607 67.779915,25.312222 68.683632,24.458836 
	C71.395882,27.421711 73.803238,24.686495 76.691902,24.000000 
z"/>
<path fill="#222020" opacity="1.000000" stroke="none" 
	d="
M73.992065,65.999817 
	C73.674652,65.531700 73.357246,65.063583 73.279083,64.055168 
	C73.348152,60.348072 73.177979,57.181271 73.283012,53.805367 
	C74.302704,52.203304 75.047188,50.810349 75.566826,49.838085 
	C77.378998,51.472057 79.190933,52.846966 80.651398,54.527348 
	C81.429825,55.422997 81.600624,56.846745 82.045685,58.032135 
	C82.043419,58.469193 82.041153,58.906246 81.782013,59.849236 
	C81.702637,61.237034 81.880127,62.118904 82.057625,63.000771 
	C82.209106,66.702263 79.686508,67.563736 76.337364,67.678482 
	C75.276299,66.909691 74.634178,66.454750 73.992065,65.999817 
z"/>
<path fill="#312C2B" opacity="1.000000" stroke="none" 
	d="
M82.406395,57.977291 
	C81.600624,56.846745 81.429825,55.422997 80.651398,54.527348 
	C79.190933,52.846966 77.378998,51.472057 75.566826,49.838085 
	C75.047188,50.810349 74.302704,52.203304 73.025269,53.606945 
	C72.652763,52.391785 72.813217,51.165936 73.007912,49.590431 
	C74.340569,46.537350 75.638992,43.833927 76.937416,41.130508 
	C76.960136,39.373383 76.982864,37.616261 77.012039,35.419197 
	C78.665054,38.230106 80.495522,41.403919 81.899811,44.756252 
	C83.016426,47.421890 83.940872,50.263584 84.305893,53.109802 
	C84.499992,54.623341 83.324425,56.312538 82.406395,57.977291 
z"/>
<path fill="#312C2B" opacity="1.000000" stroke="none" 
	d="
M82.298042,62.812592 
	C81.880127,62.118904 81.702637,61.237034 81.786377,60.177006 
	C82.211227,60.874035 82.374847,61.749226 82.298042,62.812592 
z"/>
<path fill="#2E2524" opacity="1.000000" stroke="none" 
	d="
M74.021446,66.320358 
	C74.634178,66.454750 75.276299,66.909691 75.960022,67.686836 
	C76.001640,68.009041 76.002747,68.505074 75.997574,68.753036 
	C75.345215,68.214302 74.698021,67.427605 74.021446,66.320358 
z"/>
<path fill="#211E1E" opacity="1.000000" stroke="none" 
	d="
M77.998901,81.004852 
	C79.973663,80.225830 81.948425,79.446815 84.772316,78.332825 
	C84.799095,78.218346 85.116776,76.860397 85.700699,75.258987 
	C87.980431,81.488449 89.987495,87.963387 92.012489,94.432716 
	C92.449821,95.829880 92.951675,97.206848 93.713608,98.816574 
	C94.003395,99.040016 94.006088,98.987991 94.008888,99.222580 
	C94.011688,99.457176 94.135063,99.922058 94.111084,100.268494 
	C94.101471,101.077240 94.115829,101.539536 94.130180,102.001839 
	C93.524643,103.426674 92.919106,104.851509 91.717056,106.585922 
	C89.464500,107.011620 87.808441,107.127747 86.152390,107.243874 
	C85.368294,107.171089 84.584198,107.098305 83.444336,106.647530 
	C86.115372,102.753113 86.616562,98.918655 85.176056,94.486954 
	C84.336006,91.902573 84.053658,89.036179 84.071228,86.300201 
	C84.091499,83.143539 82.380074,82.827217 79.953789,82.685318 
	C79.274124,81.911469 78.636513,81.458160 77.998901,81.004852 
z"/>
<path fill="#7D462E" opacity="1.000000" stroke="none" 
	d="
M86.127090,107.598381 
	C87.808441,107.127747 89.464500,107.011620 91.536430,106.874542 
	C96.494980,108.620171 94.198433,113.282974 95.966873,116.647438 
	C90.140282,118.413895 89.742622,117.973770 90.084625,111.078346 
	C88.589226,109.904861 87.345505,108.928871 86.127090,107.598381 
z"/>
<path fill="#5A3728" opacity="1.000000" stroke="none" 
	d="
M94.409698,101.976967 
	C94.115829,101.539536 94.101471,101.077240 94.273445,100.273842 
	C94.459778,99.932747 94.787102,99.937019 94.787102,99.937019 
	C95.097374,100.133781 95.407646,100.330544 95.856865,100.768829 
	C95.560280,101.324265 95.124748,101.638176 94.409698,101.976967 
z"/>
<path fill="#41403F" opacity="1.000000" stroke="none" 
	d="
M65.635406,26.956799 
	C66.640045,28.122055 67.307617,29.225115 67.946640,30.975698 
	C65.387245,32.792122 61.408249,32.369614 61.797363,37.098804 
	C61.297207,37.404144 61.106201,37.665585 60.671040,37.946587 
	C60.217354,36.597431 60.095158,35.292522 59.984772,33.621803 
	C59.981823,31.175362 59.967064,29.094728 59.970894,26.760853 
	C59.990917,26.338333 59.992352,26.169056 60.006294,25.757221 
	C60.018806,25.514662 60.037029,25.029245 60.355949,24.971260 
	C60.767738,24.165178 61.216084,23.002213 60.900013,22.731394 
	C56.368698,18.848806 46.842014,22.036587 44.639519,27.985886 
	C43.878101,27.989254 43.443054,27.990692 42.867409,27.668781 
	C43.814507,24.554922 44.902199,21.764416 45.989891,18.973906 
	C47.598099,18.189260 49.192600,17.374924 50.816811,16.624931 
	C59.459106,12.634296 64.937592,16.399389 64.381790,25.892529 
	C64.363342,26.207586 64.978516,26.559740 65.635406,26.956799 
z"/>
<path fill="#362F2E" opacity="1.000000" stroke="none" 
	d="
M45.987488,18.626865 
	C44.902199,21.764416 43.814507,24.554922 42.537132,27.716053 
	C41.231586,29.391169 40.115734,30.695660 38.872910,31.699852 
	C38.451149,29.533569 38.156361,27.667585 37.861572,25.801603 
	C39.119770,23.066793 40.377972,20.331985 41.790783,17.294151 
	C43.274719,17.474718 45.722496,14.452305 45.987488,18.626865 
z"/>
<path fill="#241B19" opacity="1.000000" stroke="none" 
	d="
M52.995335,79.930420 
	C46.982231,79.946342 40.969131,79.962265 34.494621,79.906837 
	C34.350487,76.822845 34.667759,73.810211 35.161674,70.078171 
	C36.684837,68.151276 38.031357,66.943787 39.666176,65.867783 
	C41.306690,66.650345 42.658901,67.301430 44.266510,68.237556 
	C47.349533,69.020462 50.177158,69.518333 53.004860,70.467529 
	C53.001732,73.922722 52.998535,76.926567 52.995335,79.930420 
z"/>
<path fill="#2E2524" opacity="1.000000" stroke="none" 
	d="
M39.377876,65.736298 
	C38.031357,66.943787 36.684837,68.151276 35.181133,69.667480 
	C30.315504,69.632408 28.390112,66.653572 30.306423,61.907955 
	C31.183863,59.735031 33.059486,57.965179 35.168678,55.987373 
	C36.886044,55.294785 37.917149,54.627357 39.036568,54.185173 
	C39.301884,54.693264 39.544941,54.897472 39.880436,55.439766 
	C39.730507,59.149754 39.554192,62.443024 39.377876,65.736298 
z"/>
<path fill="#D1D0CB" opacity="1.000000" stroke="none" 
	d="
M38.948254,53.959930 
	C37.917149,54.627357 36.886044,55.294785 35.533802,55.925423 
	C34.481396,51.892929 33.750130,47.897221 33.343231,43.471466 
	C34.369518,43.727211 35.071430,44.413006 35.845478,45.438477 
	C36.848049,47.552429 37.778488,49.326710 38.652870,51.356586 
	C38.713963,52.394764 38.831108,53.177349 38.948254,53.959930 
z"/>
<path fill="#382F2D" opacity="1.000000" stroke="none" 
	d="
M35.773338,45.098804 
	C35.071430,44.413006 34.369518,43.727211 33.357292,43.058548 
	C33.046982,43.075676 33.036415,42.584614 33.021751,42.340782 
	C33.154465,41.509483 33.301842,40.922016 34.044579,40.161728 
	C35.760601,40.656338 36.881264,41.323761 37.871513,42.292747 
	C37.085182,43.429142 36.429260,44.263973 35.773338,45.098804 
z"/>
<path fill="#3E3433" opacity="1.000000" stroke="none" 
	d="
M38.001930,41.991180 
	C36.881264,41.323761 35.760601,40.656338 34.283340,39.969193 
	C33.929062,38.916874 33.931377,37.884281 34.203922,36.241333 
	C35.982723,34.420704 37.491302,33.210426 38.999878,32.000153 
	C40.115734,30.695660 41.231586,29.391169 42.677723,28.039404 
	C43.443054,27.990692 43.878101,27.989254 44.919601,28.222666 
	C44.827717,29.992090 44.464146,31.855518 43.354034,32.985584 
	C41.608635,34.762352 41.590881,35.655167 43.697506,37.099468 
	C45.665916,38.449009 47.255692,40.350811 49.004837,42.361099 
	C48.328453,44.148827 47.659348,45.585007 46.741669,47.014462 
	C46.493092,47.007740 45.996140,46.988071 45.998432,46.582443 
	C46.353268,42.357220 45.295616,40.300606 40.963791,41.924583 
	C40.090870,42.251839 38.995007,41.984421 38.001930,41.991180 
z"/>
<path fill="#382F2D" opacity="1.000000" stroke="none" 
	d="
M38.872910,31.699852 
	C37.491302,33.210426 35.982723,34.420704 34.195992,35.853123 
	C32.952583,33.668602 31.987337,31.261934 31.057518,28.454666 
	C33.168678,27.416409 35.244411,26.778751 37.590858,25.971350 
	C38.156361,27.667585 38.451149,29.533569 38.872910,31.699852 
z"/>
<path fill="#CCCCBD" opacity="1.000000" stroke="none" 
	d="
M16.729662,86.247910 
	C20.618423,86.370697 24.327192,86.782806 27.745371,87.612732 
	C25.630339,88.361580 23.805897,88.692612 21.944387,88.877640 
	C21.823643,88.677010 21.739967,88.622375 21.656292,88.567741 
	C21.778255,88.706429 21.900215,88.845116 22.176853,89.248322 
	C23.106590,89.700684 23.881651,89.888542 24.751011,90.466789 
	C26.321121,96.371582 30.998444,92.931320 34.012154,94.437668 
	C34.008598,95.142410 34.008110,95.545128 33.621891,95.980118 
	C28.959993,96.686783 28.665260,99.995491 29.172544,103.114555 
	C29.364769,104.296455 31.585825,105.148384 33.255009,106.187202 
	C34.731735,105.763817 35.835575,105.303947 37.285164,104.882217 
	C38.091270,104.974586 38.551624,105.028801 38.970585,105.423523 
	C36.945839,108.522835 34.962486,111.281647 32.565762,114.036575 
	C30.772953,114.034691 29.393515,114.036690 27.612110,114.025291 
	C26.137625,114.014572 25.065105,114.017242 23.641497,114.061676 
	C22.821779,115.318192 22.353149,116.532959 21.884521,117.747719 
	C19.765793,117.747719 17.647066,117.747719 14.820594,117.747719 
	C15.275736,116.121284 15.594716,114.981415 16.005529,113.474846 
	C19.321535,107.361038 19.677359,101.244171 18.395586,94.933792 
	C17.825226,92.125809 17.167658,89.335548 16.729662,86.247910 
z"/>
<path fill="#635C59" opacity="1.000000" stroke="none" 
	d="
M94.726753,99.721436 
	C94.787102,99.937019 94.459778,99.932747 94.297424,99.927399 
	C94.135063,99.922058 94.011688,99.457176 93.983353,99.218109 
	C94.257339,99.066719 94.494469,99.242317 94.726753,99.721436 
z"/>
<path fill="#131311" opacity="1.000000" stroke="none" 
	d="
M79.995842,83.005852 
	C82.380074,82.827217 84.091499,83.143539 84.071228,86.300201 
	C84.053658,89.036179 84.336006,91.902573 85.176056,94.486954 
	C86.616562,98.918655 86.115372,102.753113 83.049850,106.637451 
	C82.843277,107.030052 82.675407,107.054741 81.916367,107.034607 
	C79.893272,105.358383 78.461327,103.726990 77.029381,102.095604 
	C75.677177,101.730515 74.343498,101.162865 72.969398,101.037155 
	C68.275383,100.607735 63.567154,100.333725 58.429722,100.000214 
	C57.924641,99.226120 57.854187,98.452225 58.099380,97.206924 
	C58.627899,95.824867 58.840771,94.914215 59.053638,94.003563 
	C61.000477,92.916611 62.947315,91.829659 65.331467,90.375725 
	C70.511139,87.674446 75.253494,85.340149 79.995842,83.005852 
z"/>
<path fill="#2E2524" opacity="1.000000" stroke="none" 
	d="
M53.338051,80.038872 
	C52.998535,76.926567 53.001732,73.922722 53.416458,70.458023 
	C57.921005,68.388680 62.014027,66.780167 66.407127,64.965187 
	C67.813019,61.313053 68.778450,57.812923 70.085159,54.445221 
	C70.717598,52.815308 71.990662,51.433971 72.973671,49.940090 
	C72.813217,51.165936 72.652763,52.391785 72.750061,53.816048 
	C73.177979,57.181271 73.348152,60.348072 73.258865,63.758018 
	C69.052460,63.557697 65.908058,69.101906 68.094604,74.519585 
	C64.797310,76.578659 61.337418,78.739273 57.522652,80.932144 
	C56.005440,80.692039 54.843102,80.419678 53.338051,80.038872 
z"/>
<path fill="#A19A92" opacity="1.000000" stroke="none" 
	d="
M24.656712,90.076401 
	C23.881651,89.888542 23.106590,89.700684 22.165550,89.257057 
	C21.999571,89.001289 21.981457,89.023643 21.981457,89.023643 
	C23.805897,88.692612 25.630339,88.361580 27.870930,88.004623 
	C29.176208,86.325127 30.065336,84.671547 30.895061,82.672546 
	C34.566940,82.489464 38.298218,82.651794 42.602966,83.116226 
	C43.800308,84.536293 44.424179,85.654251 44.634121,86.845505 
	C42.179276,87.260551 40.138363,87.602295 37.712997,87.921875 
	C36.239296,87.688644 34.368008,87.016701 34.179546,87.336487 
	C31.814772,91.349159 27.918783,89.566063 24.656712,90.076401 
M33.511810,83.426842 
	C33.511810,83.426842 33.582912,83.539642 33.511810,83.426842 
z"/>
<path fill="#978B85" opacity="1.000000" stroke="none" 
	d="
M45.048050,86.772209 
	C44.424179,85.654251 43.800308,84.536293 43.017147,83.122215 
	C45.636841,82.815071 48.415821,82.804047 51.599251,82.677795 
	C52.346752,83.795670 52.689804,85.028786 52.576065,86.619743 
	C49.762199,86.909126 47.405125,86.840668 45.048050,86.772209 
z"/>
<path fill="#CBC2B3" opacity="1.000000" stroke="none" 
	d="
M58.939240,93.679932 
	C58.840771,94.914215 58.627899,95.824867 58.067360,96.817444 
	C57.507515,95.537231 57.295345,94.175087 57.236084,92.550468 
	C57.867607,92.644096 58.346222,93.000198 58.939240,93.679932 
z"/>
<path fill="#B6B2A8" opacity="1.000000" stroke="none" 
	d="
M23.992588,114.019913 
	C25.065105,114.017242 26.137625,114.014572 27.628426,114.316879 
	C28.362724,115.079803 28.678740,115.537758 28.990774,116.299782 
	C28.981236,117.008598 28.975674,117.413353 28.970114,117.818100 
	C28.970114,117.818100 29.041378,117.999969 29.044638,118.098785 
	C27.649792,118.115547 26.251686,118.033485 24.429482,117.523613 
	C24.001116,116.070503 23.996851,115.045204 23.992588,114.019913 
z"/>
<path fill="#B0ABA0" opacity="1.000000" stroke="none" 
	d="
M23.641499,114.061668 
	C23.996851,115.045204 24.001116,116.070503 24.012699,117.477768 
	C23.541636,117.883224 23.063248,117.906715 22.234692,117.838959 
	C22.353149,116.532959 22.821779,115.318192 23.641499,114.061668 
z"/>
<path fill="#552E17" opacity="1.000000" stroke="none" 
	d="
M76.986511,102.481476 
	C78.461327,103.726990 79.893272,105.358383 81.664948,107.074150 
	C83.124870,110.384590 82.321121,112.831902 79.056122,114.650864 
	C78.537125,114.756378 78.073814,114.516556 77.374939,114.170990 
	C77.074127,110.332611 77.008888,106.599983 76.986511,102.481476 
z"/>
<path fill="#D4D2C1" opacity="1.000000" stroke="none" 
	d="
M44.634121,86.845505 
	C47.405125,86.840668 49.762199,86.909126 52.562199,87.001190 
	C52.996918,96.692268 52.988708,106.359741 52.978432,116.492020 
	C52.976360,116.956825 53.016159,116.976639 52.643982,116.971527 
	C52.022388,116.948631 51.772976,116.930840 51.652699,116.531349 
	C50.553238,115.085884 49.436024,113.318031 48.073257,113.102470 
	C45.080692,112.629097 41.963894,112.941071 38.572838,112.986404 
	C37.881725,113.738281 37.515587,114.436172 37.148659,115.419464 
	C37.157238,116.083282 37.166611,116.461693 37.125023,117.075912 
	C37.074062,117.311714 37.050140,117.793617 37.050140,117.793625 
	C36.289707,117.788826 35.529270,117.784035 34.359070,117.449661 
	C33.633980,116.746933 33.318653,116.373772 33.011307,115.673622 
	C33.005905,114.911240 32.992519,114.475845 32.979134,114.040451 
	C34.962486,111.281647 36.945839,108.522835 39.206802,105.129761 
	C39.854126,101.880463 41.181889,98.927681 37.138901,97.850983 
	C37.130798,97.836472 37.152649,97.802567 36.987659,97.530205 
	C35.884319,96.821182 34.945969,96.384514 34.007618,95.947845 
	C34.008110,95.545128 34.008598,95.142410 34.466042,94.405006 
	C39.621864,93.839325 44.906345,95.631447 48.533955,89.552467 
	C44.860229,88.986290 41.478840,88.465157 38.097446,87.944031 
	C40.138363,87.602295 42.179276,87.260551 44.634121,86.845505 
z"/>
<path fill="#B6B2A8" opacity="1.000000" stroke="none" 
	d="
M37.003860,117.884476 
	C37.050140,117.793617 37.074062,117.311714 37.544373,117.102448 
	C42.517647,116.899803 47.020603,116.906433 51.523563,116.913055 
	C51.772976,116.930840 52.022388,116.948631 52.645977,116.993561 
	C48.976437,117.433922 44.932716,117.847145 40.097900,118.221100 
	C38.512466,118.180023 37.718132,118.178223 36.923801,118.176430 
	C36.923801,118.176430 36.957581,117.975327 37.003860,117.884476 
z"/>
<path fill="#CCCCBD" opacity="1.000000" stroke="none" 
	d="
M33.003326,116.000610 
	C33.318653,116.373772 33.633980,116.746933 33.987236,117.370392 
	C32.621311,117.712158 31.217451,117.803612 29.391853,117.856583 
	C28.975674,117.413353 28.981236,117.008598 29.391705,116.300804 
	C30.865519,115.998711 31.934423,115.999664 33.003326,116.000610 
z"/>
<path fill="#817774" opacity="1.000000" stroke="none" 
	d="
M36.958405,118.524139 
	C37.718132,118.178223 38.512466,118.180023 39.691483,118.290833 
	C39.551319,119.216248 39.026466,120.032646 38.501610,120.849045 
	C37.998745,120.189987 37.495876,119.530922 36.958405,118.524139 
z"/>
<path fill="#482B1A" opacity="1.000000" stroke="none" 
	d="
M79.953789,82.685318 
	C75.253494,85.340149 70.511139,87.674446 65.383820,90.037094 
	C67.638161,87.714828 70.175728,85.232712 72.964462,83.075249 
	C74.159439,82.150764 75.876953,81.901703 77.677971,81.175301 
	C78.636513,81.458160 79.274124,81.911469 79.953789,82.685318 
z"/>
<path fill="#824C35" opacity="1.000000" stroke="none" 
	d="
M73.007912,49.590431 
	C71.990662,51.433971 70.717598,52.815308 70.085159,54.445221 
	C68.778450,57.812923 67.813019,61.313053 66.023979,64.952553 
	C60.991737,67.759941 58.831371,63.854454 56.137543,61.641289 
	C56.559418,59.177753 56.824799,57.076977 57.348564,54.717083 
	C57.116783,52.636627 56.626610,50.815285 56.126511,48.632202 
	C56.118214,47.546848 56.119839,46.823231 56.488327,46.068012 
	C57.593452,45.971233 58.331711,45.906059 59.352348,45.990753 
	C60.734509,46.780594 61.834297,47.420574 62.934086,48.060551 
	C63.023621,48.392509 63.208164,48.658558 63.922562,49.212631 
	C65.611801,49.071159 66.866203,48.575756 68.120605,48.080353 
	C69.788544,46.272976 71.377182,44.381714 73.160255,42.696129 
	C73.965927,41.934513 75.158440,41.582119 76.556435,41.087288 
	C75.638992,43.833927 74.340569,46.537350 73.007912,49.590431 
z"/>
<path fill="#392E2C" opacity="1.000000" stroke="none" 
	d="
M63.145653,47.773483 
	C61.834297,47.420574 60.734509,46.780594 59.308044,45.709072 
	C58.648396,44.831112 58.315426,44.384693 57.979221,43.557053 
	C56.728500,39.726868 55.481007,36.277905 54.192619,32.715870 
	C56.337479,33.187767 58.155220,33.587692 59.972961,33.987617 
	C60.095158,35.292522 60.217354,36.597431 60.713562,38.313972 
	C62.722012,39.480137 64.356445,40.234661 65.990883,40.989185 
	C65.112991,43.154930 64.235107,45.320671 63.145653,47.773483 
z"/>
<path fill="#313030" opacity="1.000000" stroke="none" 
	d="
M62.019180,36.991100 
	C61.408249,32.369614 65.387245,32.792122 67.978500,31.300966 
	C70.962524,30.716188 70.943199,32.248566 69.726624,34.807499 
	C68.907196,36.548035 68.427933,37.784744 67.948669,39.021454 
	C67.527206,39.019794 67.105751,39.018131 66.036911,38.981934 
	C64.266090,38.295300 63.142635,37.643200 62.019180,36.991100 
z"/>
<path fill="#443B3A" opacity="1.000000" stroke="none" 
	d="
M61.797363,37.098804 
	C63.142635,37.643200 64.266090,38.295300 65.720879,38.975250 
	C66.038673,39.444542 66.025131,39.885975 66.001236,40.658298 
	C64.356445,40.234661 62.722012,39.480137 61.045052,38.358219 
	C61.106201,37.665585 61.297207,37.404144 61.797363,37.098804 
z"/>
<path fill="#443B3A" opacity="1.000000" stroke="none" 
	d="
M68.278229,38.975197 
	C68.427933,37.784744 68.907196,36.548035 69.694336,35.153900 
	C69.537399,36.307301 69.072594,37.618122 68.278229,38.975197 
z"/>
<path fill="#392E2C" opacity="1.000000" stroke="none" 
	d="
M67.752785,48.056717 
	C66.866203,48.575756 65.611801,49.071159 64.146240,49.316738 
	C65.085045,48.722301 66.235008,48.377689 67.752785,48.056717 
z"/>
<path fill="#302826" opacity="1.000000" stroke="none" 
	d="
M59.984772,33.621803 
	C58.155220,33.587692 56.337479,33.187767 54.192619,32.715870 
	C55.481007,36.277905 56.728500,39.726868 57.655449,43.620193 
	C56.930424,44.742912 56.525948,45.421265 56.121468,46.099617 
	C56.119839,46.823231 56.118214,47.546848 56.083878,48.628563 
	C56.051170,48.986660 55.968792,48.989529 55.630402,48.991840 
	C54.513687,48.654068 53.735359,48.313984 52.969666,47.594894 
	C52.981724,44.486332 52.981152,41.756775 52.847580,38.699165 
	C51.637154,35.968697 50.912495,33.312477 49.406094,31.218693 
	C46.595970,27.312840 49.098152,25.465422 52.067745,24.694073 
	C54.529091,24.054743 57.366325,24.862558 60.037029,25.029243 
	C60.037029,25.029245 60.018806,25.514662 59.757023,25.772526 
	C59.227272,26.181622 58.959305,26.332851 58.691338,26.484083 
	C59.111660,26.660755 59.531979,26.837425 59.952301,27.014097 
	C59.967064,29.094728 59.981823,31.175362 59.984772,33.621803 
z"/>
<path fill="#362F2E" opacity="1.000000" stroke="none" 
	d="
M60.355949,24.971260 
	C57.366325,24.862558 54.529091,24.054743 52.067745,24.694073 
	C49.098152,25.465422 46.595970,27.312840 49.406094,31.218693 
	C50.912495,33.312477 51.637154,35.968697 52.527428,38.733295 
	C51.230885,40.066837 50.121502,41.038193 49.012119,42.009544 
	C47.255692,40.350811 45.665916,38.449009 43.697506,37.099468 
	C41.590881,35.655167 41.608635,34.762352 43.354034,32.985584 
	C44.464146,31.855518 44.827717,29.992090 45.245972,28.220736 
	C46.842014,22.036587 56.368698,18.848806 60.900013,22.731394 
	C61.216084,23.002213 60.767738,24.165178 60.355949,24.971260 
z"/>
<path fill="#362F2E" opacity="1.000000" stroke="none" 
	d="
M59.970894,26.760853 
	C59.531979,26.837425 59.111660,26.660755 58.691338,26.484083 
	C58.959305,26.332851 59.227272,26.181622 59.744514,26.015085 
	C59.992352,26.169056 59.990917,26.338333 59.970894,26.760853 
z"/>
<path fill="#563527" opacity="1.000000" stroke="none" 
	d="
M55.981049,62.004044 
	C58.831371,63.854454 60.991737,67.759941 65.723900,65.159027 
	C62.014027,66.780167 57.921005,68.388680 53.416382,70.006691 
	C50.177158,69.518333 47.349533,69.020462 44.448299,67.978760 
	C44.942322,65.279991 45.509953,63.125065 46.368553,61.131046 
	C48.023022,62.821400 49.386524,64.350838 50.910625,66.060432 
	C52.749565,64.589264 54.365307,63.296658 55.981049,62.004044 
z"/>
<path fill="#804A32" opacity="1.000000" stroke="none" 
	d="
M46.077583,60.970135 
	C45.509953,63.125065 44.942322,65.279991 44.192902,67.693718 
	C42.658901,67.301430 41.306690,66.650345 39.666180,65.867783 
	C39.554192,62.443024 39.730507,59.149754 40.206337,55.291901 
	C41.009632,53.491016 41.513401,52.254715 42.013660,51.012749 
	C42.010151,51.007084 42.022114,51.017307 42.347672,50.991356 
	C46.946808,49.697598 43.691292,54.652210 46.009686,55.427963 
	C46.033047,57.559883 46.055313,59.265011 46.077583,60.970135 
z"/>
<path fill="#633D2D" opacity="1.000000" stroke="none" 
	d="
M42.017174,51.018414 
	C41.513401,52.254715 41.009632,53.491016 40.179955,54.875183 
	C39.544941,54.897472 39.301884,54.693264 39.036568,54.185177 
	C38.831108,53.177349 38.713963,52.394764 38.941372,51.390213 
	C40.196342,51.118298 41.106758,51.068356 42.017174,51.018414 
z"/>
<path fill="#372824" opacity="1.000000" stroke="none" 
	d="
M42.013664,51.012749 
	C41.106758,51.068356 40.196342,51.118298 38.997425,51.134617 
	C37.778488,49.326710 36.848049,47.552429 35.845474,45.438477 
	C36.429260,44.263973 37.085182,43.429142 37.871513,42.292747 
	C38.995007,41.984421 40.090870,42.251839 40.963791,41.924583 
	C45.295616,40.300606 46.353268,42.357220 45.690205,46.718040 
	C44.260494,48.511948 43.141304,49.764626 42.022110,51.017303 
	C42.022114,51.017307 42.010151,51.007084 42.013664,51.012749 
z"/>
<path fill="#483E3D" opacity="1.000000" stroke="none" 
	d="
M49.004837,42.361099 
	C50.121502,41.038193 51.230885,40.066837 52.660423,39.061348 
	C52.981152,41.756775 52.981724,44.486332 52.546844,47.602116 
	C50.411346,48.000095 48.711300,48.011852 47.004242,47.773033 
	C46.994900,47.355370 46.992573,47.188278 46.990246,47.021183 
	C47.659348,45.585007 48.328453,44.148827 49.004837,42.361099 
z"/>
<path fill="#633D2D" opacity="1.000000" stroke="none" 
	d="
M46.741669,47.014462 
	C46.992573,47.188278 46.994900,47.355370 46.998875,48.209286 
	C47.004387,50.945259 47.008255,52.994411 46.760933,55.040222 
	C46.342693,55.024971 46.175640,55.013069 46.008591,55.001167 
	C43.691292,54.652210 46.946808,49.697598 42.347672,50.991356 
	C43.141304,49.764626 44.260494,48.511948 45.687912,47.123669 
	C45.996140,46.988071 46.493092,47.007740 46.741669,47.014462 
z"/>
<path fill="#938C83" opacity="1.000000" stroke="none" 
	d="
M37.712997,87.921875 
	C41.478840,88.465157 44.860229,88.986290 48.533955,89.552467 
	C44.906345,95.631447 39.621864,93.839325 34.469105,94.102982 
	C30.998444,92.931320 26.321121,96.371582 24.751011,90.466789 
	C27.918783,89.566063 31.814772,91.349159 34.179546,87.336487 
	C34.368008,87.016701 36.239296,87.688644 37.712997,87.921875 
z"/>
<path fill="#83A88E" opacity="1.000000" stroke="none" 
	d="
M33.621891,95.980118 
	C34.945969,96.384514 35.884319,96.821182 36.644478,97.633278 
	C35.762691,99.003906 35.059097,99.999092 34.412045,100.914299 
	C34.136715,100.106842 33.801517,99.123810 33.466320,98.140770 
	C33.271591,98.184341 33.076859,98.227921 32.882126,98.271492 
	C32.882126,100.897903 32.882126,103.524307 32.882126,106.150719 
	C31.585825,105.148384 29.364769,104.296455 29.172544,103.114555 
	C28.665260,99.995491 28.959993,96.686783 33.621891,95.980118 
z"/>
<path fill="#6F8878" opacity="1.000000" stroke="none" 
	d="
M33.255009,106.187202 
	C32.882126,103.524307 32.882126,100.897903 32.882126,98.271492 
	C33.076859,98.227921 33.271591,98.184341 33.466320,98.140770 
	C33.801517,99.123810 34.136715,100.106842 34.412045,100.914299 
	C35.059097,99.999092 35.762691,99.003906 36.809471,97.905640 
	C37.152649,97.802567 37.130798,97.836472 37.085114,98.293892 
	C37.006088,100.782234 36.972752,102.813148 36.939415,104.844070 
	C35.835575,105.303947 34.731735,105.763817 33.255009,106.187202 
z"/>
<path fill="#83A88E" opacity="1.000000" stroke="none" 
	d="
M37.285164,104.882217 
	C36.972752,102.813148 37.006088,100.782234 37.093216,98.308403 
	C41.181889,98.927681 39.854126,101.880463 39.248199,104.789253 
	C38.551624,105.028801 38.091270,104.974586 37.285164,104.882217 
z"/>
<path fill="#B0ABA0" opacity="1.000000" stroke="none" 
	d="
M33.011307,115.673630 
	C31.934423,115.999664 30.865519,115.998711 29.395683,115.996735 
	C28.678740,115.537758 28.362724,115.079803 28.030394,114.330269 
	C29.393515,114.036690 30.772953,114.034691 32.565762,114.036575 
	C32.992519,114.475845 33.005905,114.911240 33.011307,115.673630 
z"/>
<path fill="#A19A92" opacity="1.000000" stroke="none" 
	d="
M22.010874,88.992554 
	C21.900215,88.845116 21.778255,88.706429 21.656292,88.567741 
	C21.739967,88.622375 21.823643,88.677010 21.944387,88.877640 
	C21.981457,89.023643 21.999571,89.001289 22.010874,88.992554 
z"/>
<path fill="#817873" opacity="1.000000" stroke="none" 
	d="
M33.547363,83.483246 
	C33.582912,83.539642 33.511810,83.426842 33.547363,83.483246 
z"/>
<path fill="#8D8C83" opacity="1.000000" stroke="none" 
	d="
M51.652699,116.531349 
	C47.020603,116.906433 42.517647,116.899803 37.595333,116.866638 
	C37.166611,116.461693 37.157238,116.083282 37.453041,115.332718 
	C38.138084,114.284523 38.517952,113.608467 38.897820,112.932419 
	C41.963894,112.941071 45.080692,112.629097 48.073257,113.102470 
	C49.436024,113.318031 50.553238,115.085884 51.652699,116.531349 
z"/>
<path fill="#B6B2A8" opacity="1.000000" stroke="none" 
	d="
M38.572838,112.986404 
	C38.517952,113.608467 38.138084,114.284523 37.453835,115.047318 
	C37.515587,114.436172 37.881725,113.738281 38.572838,112.986404 
z"/>
<path fill="#372723" opacity="1.000000" stroke="none" 
	d="
M46.009686,55.427963 
	C46.175640,55.013069 46.342693,55.024971 46.965771,55.293308 
	C48.267921,55.711704 49.114040,55.873672 50.126698,56.336273 
	C53.631340,60.472675 54.633797,54.749134 57.090179,54.976196 
	C56.824799,57.076977 56.559418,59.177753 56.137543,61.641289 
	C54.365307,63.296658 52.749565,64.589264 50.910625,66.060432 
	C49.386524,64.350838 48.023022,62.821400 46.368549,61.131046 
	C46.055313,59.265011 46.033047,57.559883 46.009686,55.427963 
z"/>
<path fill="#533C35" opacity="1.000000" stroke="none" 
	d="
M57.348564,54.717083 
	C54.633797,54.749134 53.631340,60.472675 50.148521,55.960503 
	C51.009514,54.232101 52.018814,53.183517 53.019913,52.127159 
	C54.007195,51.085381 54.986168,50.035725 55.968788,48.989525 
	C55.968792,48.989529 56.051170,48.986660 56.093803,48.990303 
	C56.626610,50.815285 57.116783,52.636627 57.348564,54.717083 
z"/>
<path fill="#533C35" opacity="1.000000" stroke="none" 
	d="
M56.488331,46.068012 
	C56.525948,45.421265 56.930424,44.742912 57.658676,44.001419 
	C58.315426,44.384693 58.648396,44.831112 59.025669,45.559208 
	C58.331711,45.906059 57.593452,45.971233 56.488331,46.068012 
z"/>
<path fill="#3D3331" opacity="1.000000" stroke="none" 
	d="
M55.630402,48.991837 
	C54.986168,50.035725 54.007195,51.085381 53.019913,52.127159 
	C52.018814,53.183517 51.009514,54.232101 49.981987,55.659866 
	C49.114040,55.873672 48.267921,55.711704 47.216961,55.296654 
	C47.008255,52.994411 47.004387,50.945259 47.005882,48.459854 
	C48.711300,48.011852 50.411346,48.000095 52.534218,47.981121 
	C53.735359,48.313984 54.513687,48.654068 55.630402,48.991837 
z"/>
</svg>